<svg width="13" height="14" viewBox="0 0 13 14" fill="none" xmlns="http://www.w3.org/2000/svg">
                <path d="M10.2917 2.125H2.70833C2.11002 2.125 1.625 2.61002 1.625 3.20833V10.7917C1.625 11.39 2.11002 11.875 2.70833 11.875H10.2917C10.89 11.875 11.375 11.39 11.375 10.7917V3.20833C11.375 2.61002 10.89 2.125 10.2917 2.125Z" stroke="white" stroke-linecap="round" stroke-linejoin="round"/>
                <path d="M4.60425 5.91663C5.05298 5.91663 5.41675 5.55286 5.41675 5.10413C5.41675 4.65539 5.05298 4.29163 4.60425 4.29163C4.15552 4.29163 3.79175 4.65539 3.79175 5.10413C3.79175 5.55286 4.15552 5.91663 4.60425 5.91663Z" stroke="white" stroke-width="2" stroke-linecap="round" stroke-linejoin="round"/>
                <path d="M11.3749 8.62496L8.66659 5.91663L2.70825 11.875" stroke="white" stroke-width="2" stroke-linecap="round" stroke-linejoin="round"/>
                </svg>